<svg xmlns="http://www.w3.org/2000/svg" xmlns:inkscape="http://www.inkscape.org/namespaces/inkscape" xmlns:sodipodi="http://sodipodi.sourceforge.net/DTD/sodipodi-0.dtd" inkscape:version="1.3.2 (091e20e, 2023-11-25, custom)" sodipodi:docname="Metasploit_logo_and_wordmark.svg" width="1000.01" height="222.75">
  <sodipodi:namedview inkscape:current-layer="Layer_1" inkscape:cx="483.27" inkscape:cy="111.5" inkscape:deskcolor="#d1d1d1" inkscape:pagecheckerboard="0" inkscape:pageopacity="0" inkscape:showpageshadow="2" inkscape:window-height="1398" inkscape:window-maximized="1" inkscape:window-width="2256" inkscape:window-x="-11" inkscape:window-y="-11" inkscape:zoom="1.45" bordercolor="#000000" borderopacity=".25" pagecolor="#ffffff"/>
  <defs>
    <radialGradient id="a" cx="116.71" cy="156.09" r="68.37" fx="116.71" fy="156.09" gradientTransform="matrix(1 0 0 1.26 -32.81 -93.1)" gradientUnits="userSpaceOnUse">
      <stop offset=".03" stop-color="#fff"/>
      <stop offset=".62" stop-color="#0f78b9"/>
      <stop offset=".62" stop-color="#0f76b6"/>
      <stop offset=".7" stop-color="#185f91"/>
      <stop offset=".78" stop-color="#1f4d74"/>
      <stop offset=".85" stop-color="#244160"/>
      <stop offset=".93" stop-color="#273954"/>
      <stop offset="1" stop-color="#283750"/>
    </radialGradient>
  </defs>
  <path fill="#010101" d="M201.94 52.75h15.54v13.63h.27c1.64-5.18 12.54-15.8 28.35-15.8 13.08 0 21.81 5.44 27.53 16.34a32.06 32.06 0 0 1 27.8-16.35c26.98 0 33.53 19.35 33.53 38.98v51.24h-16.63V91.73c0-13.36-2.73-25.62-18.81-25.62s-22.35 10.9-22.35 26.44v48.24h-16.63V94.73c0-16.63-2.45-28.62-18.53-28.62-11.99 0-22.9 9-22.9 28.9v45.78h-17.17zm161.63 50.16c0 15.54 14.17 25.62 29.71 25.62 10.36 0 17.72-5.18 24.26-13.08l12.54 9.54c-9.27 12-22.08 18-38.98 18-27.8 0-45.25-20.18-45.25-46.35s19.08-46.34 45.52-46.34c31.07 0 42.79 23.71 42.79 46.34v6zm52.61-13.36c-.27-14.72-8.45-25.62-25.35-25.62a27.26 27.26 0 0 0-27.26 25.62h52.6zm75.77-22.35h-23.99V107c0 9.8 0 20.16 12.54 20.16 4.17.17 8.31-.77 11.99-2.73v15.26a39.78 39.78 0 0 1-14.99 3c-25.89 0-26.17-15.8-26.17-29.98V67.2h-19.35V52.74h19.35v-24.8h16.63v24.8h23.99V67.2zm12.54-3.54a52.73 52.73 0 0 1 34.89-13.08c25.89 0 36.8 14.17 36.8 29.44V125c0 5.37.27 10.74.82 16.08h-14.72c-.27-4.36-.55-8.99-.55-13.36h-.27c-7.36 11.45-17.44 15.54-30.8 15.54-16.35 0-30.53-9.27-30.53-26.44 0-22.62 21.81-30.53 48.52-30.53h12.27v-3.82c0-8.99-6.54-18.53-20.99-18.53-12.81 0-18.81 5.45-25.08 10.08l-10.36-10.36zm47.43 34.88c-15.81 0-35.16 2.73-35.16 16.9 0 10.08 7.36 14.17 18.81 14.17 18.53 0 25.08-13.63 25.08-25.62v-5.45h-8.72zm88.85-23.71a22.22 22.22 0 0 0-17.99-8.72c-7.9 0-14.72 3.54-14.72 9.81 0 10.63 14.99 12 22.35 13.63 14.45 3.54 25.62 9 25.62 25.62 0 19.9-18.26 27.8-35.71 27.8-14.45 0-25.35-3.82-34.07-15.54l12.54-10.36c5.45 5.45 11.72 10.36 21.26 10.36 8.45 0 17.72-3.54 17.72-11.18 0-10.08-13.9-11.99-21.26-13.63-14.17-3.54-26.98-8.18-26.98-25.08 0-18.26 16.9-26.98 33.53-26.98 11.72 0 23.71 4.1 29.98 14.45l-12.27 9.81zm26.17-22.08h16.63V65.3h.27a38.17 38.17 0 0 1 30.53-14.72c27.26 0 44.7 20.17 44.7 46.34s-17.72 46.34-44.7 46.34c-12.54 0-24.8-5.72-30.53-14.99h-.27v45.8h-16.63V52.75zm16.9 43.9c0 17.71 11.18 30.52 28.89 30.52s28.89-12.54 28.89-30.53c0-17.99-11.18-30.53-29.16-30.53s-28.62 12.81-28.62 30.53zM772.42.42h16.63V140.8h-16.63zm71.41 50.15a46.61 46.61 0 1 1-.54 0h.55zm0 76.87c17.72 0 28.89-12.8 28.89-30.53 0-17.72-11.18-30.53-28.89-30.53s-28.89 12.81-28.89 30.53 11.18 30.53 28.89 30.53zM907.07 8.87a12.27 12.27 0 1 1-12.27 12.27 12.57 12.57 0 0 1 12.27-12.27zm-8.45 43.88h16.63v88.04h-16.63zm82.86 14.45h-23.99V107c0 9.8 0 20.16 12.54 20.16 4.17.17 8.31-.77 11.99-2.73v15.26a39.78 39.78 0 0 1-14.99 3c-25.89 0-26.17-15.8-26.17-29.98V67.2h-19.35V52.74h19.35v-24.8h16.63v24.8h23.99V67.2zm5.45-65.69a13.08 13.08 0 1 1-13.08 13.08c.1-7.18 5.9-12.98 13.08-13.08zm0 24.26a11.08 11.08 0 0 0 11.18-10.96v-.22a11.18 11.18 0 1 0-22.36 0 11.24 11.24 0 0 0 11.18 11.18zm-2.73-3.82h-1.91V6.96h5.72c3.27 0 4.63 1.36 4.63 4.1a4.4 4.4 0 0 1-3.82 4.35l4.63 6.54h-2.18l-4.36-6.54h-2.73v6.54zm0-8.17h2.45c2.18 0 4.36 0 4.36-2.73 0-1.9-1.64-2.45-3.27-2.45h-3.54z"/>
  <path fill="url(#a)" d="M168.76 139.48c.17 21.47-80.49 83.27-84.38 83.27-3.89 0-84.54-61.08-84.38-83.27V16.06C18.7 9.33 47.77-.17 84.88 0c35.96.16 65.42 9.42 83.87 16.06v123.42z"/>
  <path fill="#283750" d="M83.92 0v5.06h.95c32.81.15 60.22 8.06 78.83 14.57v119.88c.01 1.6-1 6.56-10.67 17.95-6.4 7.54-15.29 16.37-26.41 26.25-18.39 16.34-36.49 29.83-42.22 33.4-2.32-1.45-7-4.67-14-10a512.3 512.3 0 0 1-28.19-23.13c-11.14-9.84-20.03-18.66-26.44-26.2-9.7-11.45-10.72-16.59-10.7-18.27V19.63c21.05-7.4 46.74-14.57 78.84-14.57V0m.01 0C47.28 0 18.55 9.4.01 16.06v123.42c-.17 22.2 80.66 83.27 84.38 83.27 3.89 0 84.54-61.8 84.38-83.27V16.06C150.32 9.42 120.86.16 84.9 0h-.98z"/>
  <path fill="#161239" d="M84.89 0h-.51v222.75c3.89 0 84.54-61.8 84.38-83.27V16.06C150.31 9.42 120.85.16 84.89 0z" opacity=".5"/>
  <path fill="#0f78b9" d="M168.76 139.48c.17 21.47-80.49 83.27-84.38 83.27-3.71 0-84.54-61.08-84.38-83.27V16.06C18.7 9.33 47.77-.17 84.88 0c35.96.16 65.42 9.42 83.87 16.06v123.42z"/>
  <path fill="#2b6692" d="M84.89 0h-.51v222.75c3.89 0 84.54-61.8 84.38-83.27V16.06C150.31 9.42 120.85.16 84.89 0z"/>
  <path fill="#fff" d="M125.23 29.74 84.39 69.02 41.86 29.74l-27.17-.04v95.55c.28 4.71 1.65 14.65 3.27 18.54 1.74 4.17 17.68 26.34 23.9 30.95v-102l29.7 23.96v43.2h25.31V96.7l28.35-23.96v102c4.92-3.68 12.73-13.13 20.79-23.79 5.17-6.84 6.48-19.85 6.88-25.66V29.74h-27.68z"/>
</svg>
